{"asset":{"version":"2.0","generator":"THREE.GLTFExporter"},"scenes":[{"nodes":[0],"name":"AuxScene"}],"scene":0,"nodes":[{"mesh":0}],"bufferViews":[{"buffer":0,"byteOffset":0,"byteLength":22464,"target":34962,"byteStride":12},{"buffer":0,"byteOffset":22464,"byteLength":22464,"target":34962,"byteStride":12}],"buffers":[{"byteLength":44928,"uri":"data:application/octet-stream;base64,"}],"accessors":[{"bufferView":0,"componentType":5126,"count":1872,"max":[100.61190795898438,10.195968627929688,100.61190795898438],"min":[-100.68809509277344,0.19596900045871735,-100.68809509277344],"type":"VEC3"},{"bufferView":1,"componentType":5126,"count":1872,"max":[0.5546904802322388,1,0.5546904802322388],"min":[-0.7022390365600586,0.7022547721862793,-0.554703950881958],"type":"VEC3"}],"materials":[{"pbrMetallicRoughness":{"baseColorFactor":[0.5019607843137255,0.5019607843137255,0.5019607843137255,1],"metallicFactor":0,"roughnessFactor":1}}],"meshes":[{"primitives":[{"mode":4,"attributes":{"POSITION":0,"NORMAL":1},"material":0}]}]}